# xmcd CD database file
#
# Track frame offsets:
#	150
#	23490
#	46055
#	68528
#	88019
#	111261
#	123124
#
# Disc length: 2067 seconds
#
# Revision: 0
# Processed by: cddbd v1.5.2PL0 Copyright (c) Steve Scherf et al.
# Submitted via: CDex 1.70beta2
#
DISCID=49081107
DTITLE=Gadjé Tavaritch - Quatre jours d'Avril...
DYEAR=2009
DGENRE=Jazz
TTITLE0=Tio swing
TTITLE1=Crise valse
TTITLE2=Dans les cordes
TTITLE3=Petite Mag
TTITLE4=Rue de la pref
TTITLE5=Manoucherie
TTITLE6=Hora Balalaika
EXTD=YEAR: 2009
EXTT0=
EXTT1=
EXTT2=
EXTT3=
EXTT4=
EXTT5=
EXTT6=
PLAYORDER=
